<svg width="32" height="32" viewBox="0 0 32 32" fill="none" xmlns="http://www.w3.org/2000/svg">
<path d="M6.66699 9.33334H25.0537C25.4262 9.33336 25.7946 9.41144 26.1352 9.56255C26.4757 9.71366 26.7808 9.93446 27.0308 10.2107C27.2808 10.4869 27.4701 10.8125 27.5866 11.1664C27.703 11.5203 27.7441 11.8946 27.707 12.2653L26.907 20.2654C26.8412 20.9234 26.5333 21.5334 26.0429 21.9772C25.5526 22.4209 24.915 22.6667 24.2537 22.6667H11.5203C10.9036 22.6669 10.3059 22.4534 9.82892 22.0625C9.35194 21.6716 9.0252 21.1274 8.90433 20.5227L6.66699 9.33334Z" stroke="#454F5B" stroke-width="2" stroke-linecap="round" stroke-linejoin="round"/>
<path d="M6.66699 9.33333L5.58699 5.00933C5.51476 4.721 5.34826 4.46508 5.11393 4.28221C4.87961 4.09934 4.5909 4.00001 4.29366 4H2.66699" stroke="#454F5B" stroke-width="2" stroke-linecap="round" stroke-linejoin="round"/>
<path d="M10.667 28H13.3337" stroke="#454F5B" stroke-width="2" stroke-linecap="round" stroke-linejoin="round"/>
<path d="M21.333 28H23.9997" stroke="#454F5B" stroke-width="2" stroke-linecap="round" stroke-linejoin="round"/>
</svg>
